<?xml version="1.0" encoding="utf-8"?>
<!-- Generator: Adobe Illustrator 27.5.0, SVG Export Plug-In . SVG Version: 6.00 Build 0)  -->
<svg version="1.1" id="Layer_1" xmlns="http://www.w3.org/2000/svg" xmlns:xlink="http://www.w3.org/1999/xlink" x="0px" y="0px"
	 viewBox="0 0 450 450" style="enable-background:new 0 0 450 450;" xml:space="preserve">
<g>
	<g>
		<g>
			<g>
				<g>
					<path style="fill:#F7E041;" d="M100.453,216l-2.398,6.289l-0.299,0.748l-0.847,2.796l-0.301,0.748l-1.197,2.796l-0.25,0.748
						l-0.799,2.796l-0.299,0.799l-1.25,2.595l-0.299,0.799l-0.799,2.845l-0.25,0.748l-1.297,2.745l-0.25,0.75l-0.898,2.794
						l-0.25,0.799l-0.849,2.796l-0.199,0.498l-0.25,0.25l-0.35,0.051l-3.343-0.1l-3.894-0.25l-0.5-0.1l-0.25-0.4l-1.248-2.445
						l-0.25-0.699l-0.898-2.597l-0.199-0.697l-0.898-2.546l-0.25-0.699l-0.998-2.546l-0.301-0.699l-0.898-2.495l-0.248-0.449H72.8
						l-0.199,0.449l-0.898,2.546l-0.25,0.699l-1.199,2.396l-0.25,0.699l-0.799,2.646l-0.248,0.697l-0.849,2.546l-0.299,0.699
						l-0.949,2.495l-0.25,0.549l-0.549,0.25l-3.095-0.25h-0.799l-3.095,0.25l-0.449-0.25l-0.199-0.597l-1.398-2.697l-0.25-0.748
						l-0.699-2.845l-0.248-0.75l-1.248-2.794l-0.301-0.75l-1.049-2.695l-0.248-0.799l-0.85-2.845l-0.25-0.75l-2.496-6.287
						l-0.299-0.75l-0.898-2.794l-0.349-0.799l-1.248-2.597l-0.35-0.748L45.098,216l-0.051-0.6l0.299-0.349l0.551-0.15h0.748
						l1.947,0.15h0.799l3.444,0.051h2.695l0.65,0.049l0.199,0.201l0.1,0.498l1.148,3.294l0.25,0.75l0.998,3.194l0.25,0.748
						l1.296,2.995l0.25,0.748l0.998,3.046l0.15,0.799l0.599,3.144l0.199,0.449l0.299,0.051l0.301-0.4l0.847-2.544l0.25-0.699
						l0.65-2.646l0.199-0.75l0.748-2.445l0.199-0.75l0.849-2.595l0.199-0.699l0.799-2.595l0.25-0.699l0.75-2.146l0.199-0.549
						l0.25-0.25l0.549-0.1l2.496-0.199l0.748-0.051l1.099,0.051h0.748l0.75,0.049l0.498,0.199l0.301,0.5l0.148,0.4l0.301,0.697
						l0.549,1.398l0.25,0.699l0.748,2.595l0.199,0.699l0.799,2.595l0.201,0.699l0.597,2.646l0.25,0.699l1.199,2.447l0.199,0.697
						l0.15,1.148l0.148,0.799l0.201,0.75l0.299,0.398l0.299-0.049l0.25-0.549l0.6-2.896l0.199-0.75l0.4-1.046l0.248-0.75l0.4-1.097
						l0.25-0.799l0.498-2.347l0.25-0.799l0.849-2.245l0.299-0.748l0.949-2.248l0.25-0.748l0.498-1.896l0.201-0.6l0.299-0.35
						l0.599-0.1l2.644,0.199h0.799l2.697-0.15h0.799l2.646,0.201h0.549l0.199,0.148L100.453,216z"/>
				</g>
				<g>
					<path style="fill:#F7E041;" d="M133.475,246.547l-0.049,0.799l-0.199,2.695l-0.051,0.5l-0.199,0.349l-0.25,0.199l-6.539,0.201
						h-0.799l-2.644-0.201l-0.801,0.051l-2.595,0.199l-0.799,0.051h-3.444l-2.595-0.201h-0.799l-4.292,0.25l-1.697-0.1l-0.6-0.1
						l-0.35-0.25l-0.15-0.35l-0.099-0.549l-0.1-1.148l-0.051-0.799l0.051-0.748v-0.75l0.199-2.646v-0.799l0.051-2.644l-0.051-0.799
						l-0.148-2.646l-0.051-0.799l0.1-2.697v-4.241l0.199-2.646l-0.049-0.799l-0.15-2.646l-0.049-0.799v-1.199l0.1-1.496v-0.75
						l0.148-2.595l0.051-0.699l0.15-0.398l0.25-0.201l0.398-0.049l0.648-0.1l3.245,0.199l3.044-0.051h0.799l2.995,0.201h0.799
						l2.995-0.201h0.799l6.787,0.1l0.849-0.049l1.697-0.15h1.248l0.699,0.15l0.299,0.25l0.1,0.349l0.1,0.648v1.347l-0.1,1.248v0.849
						l0.051,1.248l0.049,0.748l-0.049,0.75l-0.1,0.597l-0.199,0.35l-0.25,0.201l-0.6,0.1h-0.4l-0.799,0.049l-4.69-0.1h-0.799
						l-2.546,0.1h-0.799l-2.595-0.1l-2.247-0.148h-0.748l-0.4,0.049l-0.498,0.1l-0.25,0.25l-0.051,0.299l-0.1,0.551l-0.1,1.197
						v0.799l0.051,0.849l0.049,0.549l0.1,0.35l0.201,0.25l0.549,0.148l1.597,0.1l1.597-0.1h4.741l5.59-0.299l1.549,0.1l0.549,0.1
						l0.299,0.25l0.15,0.299l0.049,0.551l0.102,0.847l0.049,0.849v1.646l0.1,1.148l-0.1,1.498l-0.1,0.599l-0.199,0.35l-0.35,0.248
						l-0.5,0.102h-0.998l-2.245-0.25l-0.799-0.051l-3.993,0.25l-3.195-0.1h-0.799l-1.998-0.15l-0.847,0.051l-0.6,0.049l-0.25,0.15
						l-0.15,0.35l-0.049,0.748l-0.15,1.25l-0.049,0.797v1.099l0.049,0.498l0.15,0.35l0.199,0.201l0.549,0.049l2.745,0.1h0.799
						l2.697-0.199l3.542,0.199h0.801l3.542-0.199h0.75l0.748,0.051l1.798,0.199l0.299,0.15l0.199,0.299l0.051,0.549L133.475,246.547
						z"/>
				</g>
				<g>
					<path style="fill:#F7E041;" d="M172.028,240.258l-0.051,0.799l-0.1,1.299l-0.15,0.748l-0.35,1.049l-0.299,0.699l-0.5,0.949
						l-0.449,0.648l-0.799,0.949l-0.549,0.549l-1.248,0.898l-0.648,0.4l-0.699,0.348l-0.75,0.35l-0.799,0.25l-0.748,0.25
						l-2.248,0.449l-1.146,0.15l-0.799,0.049l-1.199,0.1h-0.799l-2.745,0.102h-4.343l-2.794-0.15h-0.799l-2.745,0.1h-0.75
						l-1.896-0.051l-0.799-0.1l-0.699-0.1l-0.398-0.148l-0.25-0.25l-0.1-0.551l-0.051-0.697l0.051-0.75v-0.799l0.049-0.398v-0.849
						l0.15-2.646l-0.051-0.799l-0.049-1.248l-0.051-0.748l-0.049-0.699v-0.748l0.049-1.25v-2.195l0.199-2.646v-0.799l-0.1-2.646
						v-0.799l-0.049-2.646l0.049-0.799l0.15-2.646l0.051-0.799l-0.201-2.644l-0.049-0.799l-0.15-1.498v-1.148l0.199-0.648l0.5-0.301
						l0.699-0.1l0.799-0.051l5.44-0.148l4.343,0.25l2.695-0.102h0.799l2.745,0.051h0.799l2.896,0.199l0.849,0.1l0.847,0.15
						l1.896,0.6l0.75,0.35l0.949,0.498l0.648,0.449l0.847,0.699l0.5,0.551l0.699,0.847l0.35,0.648l0.549,0.949l0.301,0.699
						l0.248,0.748l0.15,0.799l0.199,1.298l0.051,0.799l-0.051,0.849l-0.148,0.847l-0.301,1.148l-0.299,0.699l-0.549,0.949
						l-0.5,0.549l-0.799,0.748l-0.4,0.4l-0.148,0.35l0.148,0.398l0.451,0.5l0.598,0.549l0.6,0.648l0.75,1.048l0.449,0.75
						l0.348,0.799l0.201,0.398l0.25,0.799l0.199,0.849l0.1,0.847L172.028,240.258z M149.317,226.632l0.049,0.398l0.051,0.799
						l0.1,0.549l0.199,0.301l0.4,0.199l0.597,0.051h1.998l0.847-0.051h0.849l1.148,0.1l1.697,0.1h1.097l0.65-0.148l0.597-0.301
						l0.5-0.35l0.35-0.398l0.299-0.5l0.15-0.699v-0.847l-0.15-0.65l-0.449-0.648l-0.699-0.5l-0.299-0.1l-0.748-0.199l-0.35-0.049
						l-0.849-0.102h-0.449l-1.947-0.248h-0.748l-1.248,0.049l-0.799,0.051h-1.049l-0.5,0.1l-0.449,0.049l-0.299,0.15l-0.199,0.25
						l-0.15,0.648l-0.15,1.199L149.317,226.632z M160.796,242.704l0.398-0.35l0.201-0.301l0.35-0.748l0.148-0.799l0.051-0.299
						l-0.051-0.699l-0.148-0.699l-0.4-0.699l-0.299-0.35l-0.65-0.648l-0.799-0.449l-0.748-0.25l-0.35-0.1l-0.699-0.051l-2.246,0.1
						l-0.849,0.051h-2.945l-0.748,0.051l-0.898,0.148l-0.449,0.15l-0.15,0.25l-0.051,0.597v0.849l0.051,0.799v1.097l-0.1,0.849
						v0.998l0.1,0.549l0.199,0.301l0.35,0.199l0.648,0.1l7.039-0.15l1.697-0.1l0.799-0.148L160.796,242.704z"/>
				</g>
				<g>
					<path style="fill:#F7E041;" d="M231.853,234.169l-0.049,0.847l-0.051,1.199l-0.15,0.799l-0.35,1.148l-0.248,0.799l-0.301,0.748
						l-0.299,0.799l-0.301,0.849l-0.299,0.748l-0.549,1.097l-0.4,0.65l-0.697,0.799l-0.5,0.549l-0.849,0.799l-1.097,1.097
						l-0.648,0.551l-0.949,0.748l-0.648,0.398l-1,0.551l-0.648,0.299l-1.097,0.398l-0.75,0.25l-0.799,0.201l-0.799,0.148
						l-3.044,0.449l-0.748,0.051l-1.099,0.1h-0.799l-1.597-0.051l-1.297-0.1h-0.799l-1.597,0.1l-1.25,0.051l-0.847,0.051
						l-0.75-0.051h-3.493l-0.748-0.051l-2.148-0.199l-0.398-0.199l-0.25-0.25l-0.1-0.549l-0.049-0.799l0.049-0.4l0.1-1.496v-0.699
						l0.051-1.148v-0.75l0.049-0.799v-0.799l-0.049-2.646v-0.797l-0.1-2.646l0.049-0.75l0.051-1.097l0.1-0.75l0.049-0.847v-0.799
						l-0.1-1.298l-0.049-0.847v-0.449l-0.051-0.849l0.199-2.646v-0.799l-0.049-2.646v-0.799l-0.15-2.644v-1.947l0.051-0.799
						l0.148-0.75l0.102-0.549l0.199-0.299l0.549-0.15l0.849-0.1l0.748-0.1l0.799-0.051l4.393,0.051h0.797l2.398,0.148l0.398,0.051
						h0.898l2.097-0.1l0.748-0.051h0.799l1.248,0.1l1.597,0.102l0.799,0.1l1.299,0.199l0.799,0.15l0.748,0.199l1.798,0.648
						l0.748,0.349l0.748,0.4l0.699,0.398l1.648,1.148l0.648,0.549l0.599,0.5l1.097,1.049l0.5,0.498l0.449,0.551l0.35,0.648
						l0.549,1.097l0.299,0.75l0.25,0.799l0.301,0.799l0.25,0.799l0.199,0.799l0.199,1.097l0.15,0.799l0.148,0.849l0.1,0.799
						l0.051,1.197l0.051,0.799L231.853,234.169z M220.473,238.461l0.35-0.748l0.299-0.849l0.201-0.748l0.199-1.099l0.049-0.699
						l0.051-1.148v-1.597l-0.051-0.799l-0.148-1.148l-0.201-0.748l-0.1-0.299l-0.398-0.75l-0.75-1.049l-0.248-0.248l-0.5-0.551
						l-0.549-0.549l-0.6-0.449l-1.097-0.648l-0.699-0.301l-0.699-0.148l-0.799-0.15l-1.248-0.049l-0.849-0.051h-1.248l-1.097-0.051
						l-0.75,0.051l-1.097,0.15l-0.549,0.148l-0.25,0.25l-0.15,0.6l-0.049,0.449l-0.051,0.748l0.1,1.498l0.051,0.799l0.1,1.099
						l0.1,0.799l0.051,0.799v0.799l-0.051,1.097v2.396l-0.051,0.849l-0.049,0.799l-0.1,1.097v0.699l-0.051,1.148l0.051,0.748
						l0.148,1.199l0.201,0.549l0.299,0.25l0.6,0.049l4.641-0.299l1.148-0.051l0.799-0.148l0.849-0.25l0.799-0.301l0.748-0.347
						l0.648-0.451l0.9-0.799l0.498-0.598L220.473,238.461z"/>
				</g>
				<g>
					<path style="fill:#F7E041;" d="M265.816,246.547l-0.049,0.799l-0.199,2.695l-0.051,0.5l-0.199,0.349l-0.25,0.199l-6.539,0.201
						h-0.799l-2.646-0.201l-0.797,0.051l-2.597,0.199l-0.799,0.051h-3.444l-2.595-0.201h-0.799l-4.292,0.25l-1.697-0.1l-0.6-0.1
						l-0.35-0.25l-0.15-0.35l-0.1-0.549l-0.1-1.148l-0.049-0.799l0.049-0.748v-0.75l0.199-2.646v-0.799l0.051-2.644l-0.051-0.799
						l-0.148-2.646l-0.051-0.799l0.1-2.697v-4.241l0.199-2.646l-0.049-0.799l-0.15-2.646l-0.049-0.799v-1.199l0.1-1.496v-0.75
						l0.148-2.595l0.051-0.699l0.15-0.398l0.248-0.201l0.4-0.049l0.648-0.1l3.245,0.199l3.044-0.051h0.799l2.995,0.201h0.799
						l2.995-0.201h0.799l6.787,0.1l0.849-0.049l1.697-0.15h1.248l0.699,0.15l0.299,0.25l0.099,0.349l0.1,0.648v1.347l-0.1,1.248
						v0.849l0.051,1.248l0.049,0.748l-0.049,0.75l-0.1,0.597l-0.201,0.35l-0.248,0.201l-0.599,0.1h-0.4l-0.799,0.049l-4.69-0.1
						h-0.799l-2.546,0.1h-0.799l-2.595-0.1l-2.247-0.148h-0.748l-0.4,0.049l-0.498,0.1l-0.25,0.25l-0.051,0.299l-0.099,0.551
						l-0.1,1.197v0.799l0.051,0.849l0.049,0.549l0.099,0.35l0.201,0.25l0.549,0.148l1.597,0.1l1.597-0.1h4.741l5.59-0.299l1.549,0.1
						l0.549,0.1l0.299,0.25l0.15,0.299l0.051,0.551l0.1,0.847l0.049,0.849v1.646l0.1,1.148l-0.1,1.498l-0.099,0.599l-0.199,0.35
						l-0.349,0.248l-0.5,0.102h-0.998l-2.246-0.25l-0.799-0.051l-3.993,0.25l-3.195-0.1h-0.799l-1.998-0.15l-0.847,0.051
						l-0.599,0.049l-0.25,0.15l-0.15,0.35l-0.049,0.748l-0.15,1.25l-0.049,0.797v1.099l0.049,0.498l0.15,0.35l0.199,0.201
						l0.549,0.049l2.745,0.1h0.799l2.697-0.199l3.544,0.199h0.797l3.544-0.199h0.75l0.748,0.051l1.798,0.199l0.299,0.15l0.199,0.299
						l0.051,0.549L265.816,246.547z"/>
				</g>
				<g>
					<path style="fill:#F7E041;" d="M301.821,240.059l-0.049,0.849l-0.1,0.847l-0.15,0.799l-0.25,1.097l-0.25,0.699l-0.449,1
						l-0.349,0.648l-0.598,0.898l-0.5,0.599l-0.599,0.6l-0.598,0.549l-1,0.648l-0.648,0.449l-0.748,0.4l-0.699,0.35l-1.148,0.398
						l-1.498,0.5l-0.799,0.148l-1.248,0.201l-0.75,0.1l-1.097,0.1l-0.699,0.049l-1.148,0.051l-2.396,0.15h-1.097l-0.699-0.051
						l-1.148-0.1l-0.748-0.1l-0.85-0.15l-0.748-0.25l-1.099-0.349l-0.699-0.348l-0.748-0.35l-0.699-0.35l-0.648-0.4l-1.597-1.097
						l-0.599-0.5l-0.898-0.699l-0.599-0.498l-0.549-0.551l-0.4-0.449l-0.049-0.35l0.25-0.449l0.199-0.248l0.5-0.551l1.396-1.297
						l0.449-0.549l0.849-1.299l0.449-0.549l0.5-0.549l0.549-0.301l0.549,0.1l0.549,0.4l1.597,1.097l0.75,0.4l0.697,0.35l1.148,0.549
						l0.75,0.25l0.799,0.248l0.799,0.15l1.148,0.051l0.799,0.049l3.144-0.199l0.799-0.1l0.4-0.1l0.748-0.301l0.648-0.398l0.5-0.5
						l0.25-0.35l0.299-0.748l-0.049-0.849l-0.1-0.398l-0.4-0.699l-0.25-0.299l-0.648-0.5l-0.4-0.15l-0.748-0.299l-0.849-0.199
						l-0.847-0.15l-4.743-0.449l-1.496-0.299l-0.799-0.201l-1.099-0.398l-0.748-0.25l-0.75-0.349l-1.697-0.85l-0.648-0.449
						l-0.75-0.449l-0.648-0.449l-0.847-0.699l-0.449-0.648l-0.451-0.748l-0.299-0.75l-0.35-1.049l-0.15-0.748l-0.148-1.097
						l-0.1-1.597l0.049-0.799l0.1-1.199l0.15-0.748l0.199-0.65l0.25-0.748l0.5-1.097l0.35-0.699l0.398-0.599l0.5-0.549l0.799-0.75
						l0.648-0.498l0.648-0.449l0.699-0.35l0.949-0.551l1.498-0.597l0.748-0.25l1.148-0.199l0.799-0.15l1.498-0.199l1.097-0.201
						l0.799-0.1l0.75-0.049h0.799l1.498,0.148l0.748,0.102l0.35,0.1l0.799,0.1l1.697,0.299l0.849,0.199l0.799,0.25l0.847,0.25
						l0.799,0.299l0.75,0.35l0.748,0.301l0.949,0.549l0.699,0.35l0.648,0.449l0.449,0.449v0.5l-0.299,0.549l-0.549,0.998l-0.4,0.599
						l-1.896,2.495l-0.549,0.699l-0.6,0.498l-0.4,0.15l-0.35-0.049l-0.498-0.25l-0.75-0.449l-0.748-0.301l-0.349-0.148l-0.75-0.25
						l-0.398-0.1l-0.849-0.201l-1.146-0.248l-0.801-0.051l-1.296-0.1H285.3l-0.847,0.049l-0.849,0.15l-0.799,0.25l-0.299,0.15
						l-0.6,0.449l-0.25,0.299l-0.35,0.699l-0.1,0.799l0.15,0.648l0.398,0.65l0.551,0.498l0.598,0.301l0.349,0.148l0.75,0.15
						l1.248,0.15l1.697,0.1l0.847,0.15l1.697,0.398l1.597,0.5l1.148,0.248l0.75,0.201l1.398,0.498l0.998,0.449l0.699,0.35l0.699,0.4
						l0.648,0.398l1.447,1.199l0.549,0.6l0.5,0.598l0.599,0.898l0.398,0.65l0.35,0.748l0.201,0.75l0.199,1.097l0.1,0.748
						L301.821,240.059z"/>
				</g>
				<g>
					<path style="fill:#F7E041;" d="M317.564,243.304v0.799l-0.199,2.695v0.799l-0.051,2.745v0.549l-0.148,0.25l-0.4,0.15
						l-0.699,0.049l-2.546-0.049h-3.093l-2.495-0.201l-0.301-0.1l-0.15-0.148v-0.5l-0.1-1.248v-0.799l-0.049-0.75v-0.748
						l-0.15-2.695l0.051-0.799l0.148-2.697l0.051-0.799l-0.15-2.745v-0.799l-0.049-2.695v-4.294l-0.051-2.743v-0.799l0.051-2.697
						v-4.292L307.131,216l0.15-0.549l0.301-0.201l0.498-0.049h0.4l0.748-0.051l1.199,0.051h0.799l2.294-0.1h3.095l0.551,0.1
						l0.1,0.299l0.049,0.549l0.1,1.299l0.051,0.799v4.891l0.051,2.697v0.799l-0.051,2.743v0.801l0.051,2.695v0.799l-0.102,2.695
						v4.343L317.564,243.304z"/>
				</g>
				<g>
					<path style="fill:#F7E041;" d="M358.401,230.774l0.049,0.85l-0.199,3.245v4.69l-0.098,2.097v2.945l-0.053,0.549l-0.297,0.5
						l-0.402,0.648l-0.447,0.65l-0.849,0.847l-0.597,0.549l-0.301,0.301l-0.65,0.449l-0.35,0.199l-0.646,0.4l-1,0.498l-0.748,0.301
						l-0.699,0.248l-1.146,0.35l-0.752,0.201l-0.797,0.148l-0.748,0.15l-1.15,0.15l-0.699,0.1l-0.748,0.148l-1.996,0.25
						l-0.752,0.051l-1.544-0.1l-1.15-0.1l-0.797-0.102l-0.799-0.148l-0.75-0.201l-1.748-0.498l-0.748-0.199l-0.748-0.25l-1-0.35
						l-0.648-0.35l-0.998-0.549l-0.599-0.449l-0.648-0.449l-0.599-0.5l-0.599-0.449l-0.549-0.5l-0.799-0.799l-0.5-0.597l-0.549-0.75
						l-0.449-0.699l-1.248-2.245l-0.35-0.799l-0.349-0.75l-0.25-0.797l-0.248-0.849l-0.15-0.799l-0.15-0.849l-0.1-0.799
						l-0.199-1.097l-0.1-0.799l-0.051-0.748v-0.75l0.15-2.245l0.1-0.4l0.15-0.847l0.199-0.85l0.25-0.799l0.25-0.847l0.248-0.799
						l0.25-0.75l0.35-0.799l0.349-0.847l0.35-0.699l0.648-0.898l0.449-0.6l0.551-0.648l0.549-0.6l0.599-0.549l1.297-1.099
						l0.648-0.498l0.599-0.449l0.599-0.4l1.648-0.949l0.748-0.449l0.849-0.35l0.847-0.248l0.799-0.201l1.847-0.299l1.449-0.199
						l0.748-0.15l0.748-0.1l1.146-0.1l0.801-0.051l1.097,0.099l0.748,0.051l1.15,0.15l0.699,0.148l1.097,0.199l0.748,0.201
						l1.097,0.35l0.752,0.25l1.796,0.898l0.748,0.449l0.65,0.449l0.248,0.148l0.549,0.35l0.549,0.4l0.252,0.25l0.549,0.398
						l0.297,0.25l0.301,0.35v0.35l-0.15,0.35l-0.297,0.449l-0.451,0.648l-0.5,0.549l-1.398,1.398l-0.898,0.799l-0.597,0.5
						l-0.549,0.398l-0.398,0.301l-0.301,0.199l-0.398,0.049l-0.549-0.348l-0.65-0.451l-0.65-0.398l-0.699-0.4l-0.797-0.348
						l-0.801-0.301l-0.85-0.199l-0.845-0.15l-2.349-0.15h-0.345l-0.801,0.051l-1.297,0.1l-0.801,0.199l-1.496,0.699l-0.65,0.449
						l-0.648,0.5l-0.549,0.549l-0.5,0.648l-0.449,0.65l-0.398,0.699l-0.301,0.748l-0.25,0.799l-0.199,0.75l-0.299,1.496l-0.15,0.799
						l-0.049,0.849v0.849l0.099,1.197l0.148,0.799l0.25,1.148l0.25,0.799l0.5,1.197l0.35,0.699l0.598,0.898l0.5,0.599l0.898,0.85
						l0.648,0.498l1,0.551l0.748,0.299l1.498,0.35l0.849,0.1l0.845,0.051h0.801l0.801-0.102l0.748-0.148l2.695-0.648l0.797-0.301
						l0.752-0.35l0.496-0.35l0.15-0.299v-0.549l0.053-0.449v-0.75l-0.102-1.498v-0.847l-0.199-0.301l-0.549-0.1h-1.199l-0.797,0.051
						l-1.15,0.148l-0.797,0.051h-1.15l-0.797-0.051l-1.699-0.299l-0.301-0.1l-0.199-0.25l-0.098-0.599l-0.053-0.398l-0.049-0.799
						l0.049-1.248l-0.098-1.498l-0.102-0.748v-1.049l0.15-0.549l0.252-0.25l0.597-0.1l1.248-0.15l0.849-0.051h2.296l3.243-0.148
						l3.991,0.248h0.801l2.044-0.248l0.801-0.051l0.398,0.051l0.748,0.148l0.349,0.201l0.102,0.299l0.15,0.699L358.401,230.774z"/>
				</g>
				<g>
					<path style="fill:#F7E041;" d="M398.251,223.038l-0.049,0.799v7.387l0.15,2.896v0.799l0.102,6.588v0.85l-0.053,0.398
						l-0.049,0.849l-0.15,2.396l0.049,2.896l-0.049,0.697l-0.199,0.6l-0.398,0.549l-0.5,0.35l-0.447,0.15l-0.699,0.051l-2.548,0.1
						l-0.797,0.049l-1.248,0.051h-0.801l-0.646-0.15l-0.602-0.25l-0.598-0.449l-0.451-0.648l-0.748-1.447l-0.447-0.65l-1.947-2.445
						l-0.5-0.6l-1.947-2.396l-0.451-0.648l-1.748-2.597l-0.447-0.598l-1.947-2.396l-0.5-0.599l-1.845-2.447l-0.451-0.398
						l-0.349,0.15l-0.15,0.597l-0.098,2.495v0.799l0.049,2.498v0.799l0.049,2.794v0.799l-0.15,2.796l0.053,0.799l0.297,1.995
						l0.053,0.799l-0.15,0.648l-0.349,0.35l-0.349,0.1l-0.598,0.102l-0.402,0.049l-0.845,0.051l-2.296-0.051h-0.801l-2.044,0.1
						h-0.801l-0.748-0.049l-0.549-0.1l-0.398-0.25l-0.203-0.35l-0.098-0.5l-0.049-0.35v-0.748l0.098-1.648l0.049-0.799l-0.146-2.646
						v-0.799l0.098-6.088l0.049-0.799l0.15-2.646l0.053-0.799v-3.444l-0.203-2.646v-0.799l0.203-2.644l-0.053-0.799l-0.199-2.697
						l-0.049-0.799v-1.148l0.049-0.748l0.102-0.75l0.098-0.549l0.15-0.35l0.301-0.148l0.549-0.102l1.496-0.1l1.5,0.1h3.743
						l0.597,0.051l0.252,0.199l0.297,0.449l2.097,2.247l0.5,0.597l1.845,2.396l0.5,0.6l1.849,2.447l0.496,0.598l1.796,2.497
						l0.451,0.597l1.898,2.396l0.496,0.599l1.8,2.495l0.398,0.35l0.398,0.051l0.349-0.25v-0.549l-0.349-2.097l-0.049-0.799
						l0.15-2.146v-0.799l-0.199-3.044v-0.799l0.199-3.046l-0.053-0.799l-0.146-1.847v-1.248l0.146-0.648l0.203-0.398l0.345-0.201
						l0.602-0.1h0.447l0.849-0.049l2.247,0.148h0.797l1.699-0.1l0.748,0.051l1.15,0.049l0.549,0.1l0.349,0.15l0.297,0.35
						l0.102,0.699l0.049,0.449l0.049,0.849l-0.098,1.546l-0.102,0.799L398.251,223.038z"/>
				</g>
			</g>
			<g>
				<rect x="196.961" y="209.372" style="fill:#053F64;" width="1.5" height="33.731"/>
			</g>
			<g>
				<rect x="140.032" y="214.651" style="fill:#053F64;" width="28.148" height="1.5"/>
			</g>
			<g>
				<rect x="114.858" y="228.179" style="fill:#053F64;" width="16.171" height="1.5"/>
			</g>
			<g>
				
					<rect x="51.111" y="214.742" transform="matrix(0.9331 -0.3597 0.3597 0.9331 -80.5311 34.2833)" style="fill:#053F64;" width="1.5" height="37.605"/>
			</g>
			<g>
				
					<rect x="75.294" y="234.085" transform="matrix(0.9317 -0.3632 0.3632 0.9317 -82.9194 44.1852)" style="fill:#053F64;" width="1.5" height="17.036"/>
			</g>
			<g>
				<rect x="339.581" y="230.276" style="fill:#053F64;" width="1.5" height="8.582"/>
			</g>
			<g>
				<rect x="236.163" y="224.105" style="fill:#053F64;" width="1.5" height="33.004"/>
			</g>
			<g>
				<rect x="306.381" y="221.539" style="fill:#053F64;" width="1.5" height="36.637"/>
			</g>
			<g>
				<rect x="387.369" y="208.994" style="fill:#053F64;" width="1.5" height="24.027"/>
			</g>
			<g>
				<path style="fill:#053F64;" d="M258.915,215.852h-3v-1.5h3V215.852z M252.915,215.852h-3v-1.5h3V215.852z M246.915,215.852h-3
					v-1.5h3V215.852z M240.915,215.852h-3v-1.5h3V215.852z"/>
			</g>
		</g>
		<g>
			<g>
				<g>
					<path style="fill:#63DCFF;" d="M143.441,320.626H85.158c-3.967,0-7.183-3.216-7.183-7.183v-5.259h72.65v5.259
						C150.625,317.41,147.409,320.626,143.441,320.626z"/>
				</g>
				<g>
					<path style="fill:#083C5A;" d="M151.374,308.934h-74.15v-42.655c0-4.375,3.559-7.934,7.934-7.934h58.284
						c4.375,0,7.933,3.559,7.933,7.934V308.934z M78.724,307.434h71.15v-41.155c0-3.548-2.886-6.434-6.433-6.434H85.158
						c-3.547,0-6.434,2.886-6.434,6.434V307.434z"/>
				</g>
				<g>
					<path style="fill:#083C5A;" d="M147.3,308.934H81.298v-43.021c0-1.774,1.444-3.218,3.218-3.218h59.566
						c1.774,0,3.218,1.443,3.218,3.218V308.934z M82.798,307.434H145.8v-41.521c0-0.947-0.77-1.718-1.718-1.718H84.517
						c-0.947,0-1.718,0.771-1.718,1.718V307.434z"/>
				</g>
				<g>
					<path style="fill:#083C5A;" d="M114.299,317.866c-1.908,0-3.461-1.553-3.461-3.461c0-1.909,1.553-3.462,3.461-3.462
						c1.909,0,3.461,1.553,3.461,3.462C117.761,316.314,116.208,317.866,114.299,317.866z M114.299,312.443
						c-1.081,0-1.961,0.88-1.961,1.962c0,1.081,0.88,1.961,1.961,1.961c1.082,0,1.961-0.88,1.961-1.961
						C116.261,313.323,115.381,312.443,114.299,312.443z"/>
				</g>
				<g>
					<path style="fill:#083C5A;" d="M124.347,330.056h-20.095v-10.18h20.095V330.056z M105.752,328.556h17.095v-7.18h-17.095
						V328.556z"/>
				</g>
				<g>
					<path style="fill:#083C5A;" d="M130.958,332.975H97.642c-1.218,0-2.21-0.991-2.21-2.209c0-1.219,0.991-2.21,2.21-2.21h33.316
						c1.218,0,2.209,0.991,2.209,2.209C133.167,331.983,132.176,332.975,130.958,332.975z M97.642,330.056
						c-0.391,0-0.71,0.318-0.71,0.709c0,0.392,0.318,0.71,0.71,0.71h33.316c0.391,0,0.709-0.318,0.709-0.709
						c0-0.392-0.318-0.71-0.709-0.71H97.642z"/>
				</g>
				<g>
					<g>
						<rect x="98.879" y="270.393" style="fill:#2FE29B;" width="30.841" height="30.841"/>
					</g>
					<g>
						<g>
							<polygon style="fill:#083C5A;" points="130.47,301.984 127.22,301.984 127.22,300.484 128.97,300.484 128.97,298.734 
								130.47,298.734 							"/>
						</g>
						<g>
							<path style="fill:#083C5A;" d="M122.052,301.984h-5.168v-1.5h5.168V301.984z M111.715,301.984h-5.168v-1.5h5.168V301.984z"/>
						</g>
						<g>
							<polygon style="fill:#083C5A;" points="101.379,301.984 98.129,301.984 98.129,298.734 99.629,298.734 99.629,300.484 
								101.379,300.484 							"/>
						</g>
						<g>
							<path style="fill:#083C5A;" d="M99.629,293.566h-1.5v-5.168h1.5V293.566z M99.629,283.23h-1.5v-5.169h1.5V283.23z"/>
						</g>
						<g>
							<polygon style="fill:#083C5A;" points="99.629,272.894 98.129,272.894 98.129,269.644 101.379,269.644 101.379,271.144 
								99.629,271.144 							"/>
						</g>
						<g>
							<path style="fill:#083C5A;" d="M122.052,271.144h-5.168v-1.5h5.168V271.144z M111.715,271.144h-5.168v-1.5h5.168V271.144z"/>
						</g>
						<g>
							<polygon style="fill:#083C5A;" points="130.47,272.894 128.97,272.894 128.97,271.144 127.22,271.144 127.22,269.644 
								130.47,269.644 							"/>
						</g>
						<g>
							<path style="fill:#083C5A;" d="M130.47,293.566h-1.5v-5.169h1.5V293.566z M130.47,283.229h-1.5v-5.168h1.5V283.229z"/>
						</g>
					</g>
				</g>
				<g>
					<g>
						<path style="fill:#083C5A;" d="M116.553,293.424h-4.507c-0.414,0-0.75-0.336-0.75-0.75v-18.235c0-0.414,0.336-0.75,0.75-0.75
							h4.507c0.414,0,0.75,0.336,0.75,0.75v18.235C117.303,293.088,116.967,293.424,116.553,293.424z M112.796,291.924h3.007
							v-16.735h-3.007V291.924z"/>
					</g>
					<g>
						<path style="fill:#083C5A;" d="M114.299,297.94L114.299,297.94c-0.284,0-0.544-0.161-0.671-0.415l-2.253-4.516
							c-0.116-0.232-0.104-0.509,0.033-0.729c0.137-0.221,0.378-0.355,0.638-0.355h4.507c0.26,0,0.501,0.135,0.638,0.355
							c0.137,0.221,0.149,0.497,0.033,0.729l-2.254,4.516C114.843,297.778,114.583,297.94,114.299,297.94z M113.258,293.424
							l1.041,2.086l1.042-2.086H113.258z"/>
					</g>
				</g>
				<g>
					<rect x="105.723" y="296.44" style="fill:#083C5A;" width="16.709" height="1.5"/>
				</g>
			</g>
			<g>
				<g>
					<path style="fill:#083C5A;" d="M317.568,201.335h-63.14v-48.488h63.14V201.335z M255.929,199.835h60.14v-45.488h-60.14V199.835
						z"/>
				</g>
				<g>
					<path style="fill:#083C5A;" d="M317.568,161.088h-63.14v-8.241h63.14V161.088z M255.929,159.588h60.14v-5.241h-60.14V159.588z"
						/>
				</g>
				<g>
					<path style="fill:#2FE29B;" d="M271.391,156.967c0,0.777-0.63,1.408-1.408,1.408c-0.777,0-1.408-0.63-1.408-1.408
						c0-0.777,0.63-1.408,1.408-1.408C270.761,155.56,271.391,156.19,271.391,156.967z"/>
				</g>
				<g>
					<path style="fill:#63DCFF;" d="M265.843,156.967c0,0.777-0.63,1.408-1.408,1.408c-0.777,0-1.408-0.63-1.408-1.408
						c0-0.777,0.63-1.408,1.408-1.408C265.212,155.56,265.843,156.19,265.843,156.967z"/>
				</g>
				<g>
					<path style="fill:#F7E041;" d="M260.294,156.967c0,0.777-0.63,1.408-1.408,1.408c-0.777,0-1.408-0.63-1.408-1.408
						c0-0.777,0.63-1.408,1.408-1.408C259.664,155.56,260.294,156.19,260.294,156.967z"/>
				</g>
				<g>
					<path style="fill:#083C5A;" d="M264.413,176.992l-0.004-1.5c0.956-0.003,1.896-0.256,2.717-0.733l0.754,1.297
						C266.831,176.665,265.632,176.989,264.413,176.992z M260.94,176.077c-1.054-0.605-1.936-1.478-2.55-2.526l1.295-0.758
						c0.482,0.823,1.174,1.508,2.001,1.982L260.94,176.077z M270.413,173.515l-1.299-0.75c0.475-0.823,0.725-1.763,0.725-2.719
						l1.5-0.074v0.074C271.34,171.264,271.02,172.464,270.413,173.515z M257.622,170.078l-0.176-0.001
						c-0.001-1.235,0.313-2.422,0.904-3.464l1.305,0.741c-0.465,0.816-0.71,1.747-0.71,2.691L257.622,170.078z M269.082,167.271
						c-0.488-0.821-1.184-1.502-2.013-1.971l0.738-1.306c1.057,0.598,1.942,1.465,2.564,2.51L269.082,167.271z M261.633,165.349
						l-0.762-1.293c1.046-0.615,2.242-0.946,3.46-0.957l0.014,1.5C263.39,164.607,262.451,164.866,261.633,165.349z"/>
				</g>
				<g>
					<path style="fill:#083C5A;" d="M301.24,170.795h-28.396v-7.697h28.396V170.795z M274.345,169.295h25.396v-4.697h-25.396
						V169.295z"/>
				</g>
				<g>
					<rect x="303.204" y="163.848" style="fill:#2FE29B;" width="10.598" height="33.305"/>
				</g>
				<g>
					<g>
						<polygon style="fill:#083C5A;" points="301.24,187.932 298.99,187.932 298.99,186.432 299.74,186.432 299.74,185.682 
							301.24,185.682 						"/>
					</g>
					<g>
						<path style="fill:#083C5A;" d="M296.336,187.932h-2.655v-1.5h2.655V187.932z M291.025,187.932h-2.654v-1.5h2.654V187.932z
							 M285.716,187.932h-2.655v-1.5h2.655V187.932z M280.405,187.932h-2.655v-1.5h2.655V187.932z"/>
					</g>
					<g>
						<polygon style="fill:#083C5A;" points="275.095,187.932 272.845,187.932 272.845,185.682 274.345,185.682 274.345,186.432 
							275.095,186.432 						"/>
					</g>
					<g>
						<rect x="272.845" y="178.208" style="fill:#083C5A;" width="1.5" height="3.737"/>
					</g>
					<g>
						<polygon style="fill:#083C5A;" points="274.345,174.471 272.845,174.471 272.845,172.221 275.095,172.221 275.095,173.721 
							274.345,173.721 						"/>
					</g>
					<g>
						<path style="fill:#083C5A;" d="M296.336,173.721h-2.655v-1.5h2.655V173.721z M291.025,173.721h-2.655v-1.5h2.655V173.721z
							 M285.715,173.721h-2.654v-1.5h2.654V173.721z M280.405,173.721h-2.655v-1.5h2.655V173.721z"/>
					</g>
					<g>
						<polygon style="fill:#083C5A;" points="301.24,174.471 299.74,174.471 299.74,173.721 298.99,173.721 298.99,172.221 
							301.24,172.221 						"/>
					</g>
					<g>
						<rect x="299.74" y="178.208" style="fill:#083C5A;" width="1.5" height="3.737"/>
					</g>
				</g>
				<g>
					<g>
						<rect x="286.57" y="176.07" style="fill:#083C5A;" width="1.5" height="8.014"/>
					</g>
					<g>
						<rect x="285.737" y="183.333" style="fill:#083C5A;" width="3.162" height="1.5"/>
					</g>
					<g>
						<polygon style="fill:#083C5A;" points="292.683,178.142 291.183,178.142 291.183,176.82 283.459,176.82 283.459,178.142 
							281.959,178.142 281.959,175.32 292.683,175.32 						"/>
					</g>
				</g>
				<g>
					<rect x="281.959" y="174.854" style="fill:#083C5A;" width="1.5" height="1.216"/>
				</g>
				<g>
					<rect x="291.183" y="174.854" style="fill:#083C5A;" width="1.5" height="1.216"/>
				</g>
				<g>
					<rect x="258.196" y="179.213" style="fill:#63DCFF;" width="12.394" height="17.94"/>
				</g>
				<g>
					<path style="fill:#083C5A;" d="M301.24,197.903h-28.396v-8.211h28.396V197.903z M274.345,196.403h25.396v-5.211h-25.396
						V196.403z"/>
				</g>
			</g>
			<g>
				<g>
					<path style="fill:#2FE29B;" d="M279.122,305.946h-71.446v-42.179c0-1.859,1.507-3.367,3.367-3.367h64.713
						c1.859,0,3.367,1.507,3.367,3.367V305.946z"/>
				</g>
				<g>
					<path style="fill:#083C5A;" d="M287.028,312.603h-87.259c-2.27,0-4.117-1.847-4.117-4.117v-3.29h95.494v3.29
						C291.146,310.757,289.299,312.603,287.028,312.603z M197.152,306.696v1.79c0,1.443,1.174,2.617,2.617,2.617h87.259
						c1.443,0,2.617-1.174,2.617-2.617v-1.79H197.152z"/>
				</g>
				<g>
					<path style="fill:#083C5A;" d="M250.551,309.649h-14.304c-1.618,0-2.935-1.316-2.935-2.934v-1.52h20.173v1.52
						C253.485,308.333,252.169,309.649,250.551,309.649z M234.813,306.696v0.02c0,0.79,0.644,1.434,1.435,1.434h14.304
						c0.791,0,1.435-0.644,1.435-1.434v-0.02H234.813z"/>
				</g>
				<g>
					<rect x="224.044" y="268.249" style="fill:#083C5A;" width="6.543" height="1.5"/>
				</g>
				<g>
					<rect x="235.155" y="268.249" style="fill:#083C5A;" width="6.049" height="1.5"/>
				</g>
				<g>
					<rect x="245.031" y="268.249" style="fill:#083C5A;" width="11.975" height="1.5"/>
				</g>
				<g>
					<rect x="261.327" y="268.249" style="fill:#083C5A;" width="7.53" height="1.5"/>
				</g>
				<g>
					<rect x="218.334" y="271.731" style="fill:#083C5A;" width="19.846" height="1.5"/>
				</g>
				<g>
					<rect x="241.204" y="271.731" style="fill:#083C5A;" width="15.802" height="1.5"/>
				</g>
				<g>
					<rect x="259.737" y="271.731" style="fill:#083C5A;" width="9.12" height="1.5"/>
				</g>
				<g>
					<rect x="218.334" y="275.215" style="fill:#083C5A;" width="23.605" height="1.5"/>
				</g>
				<g>
					<rect x="245.031" y="275.215" style="fill:#083C5A;" width="7.704" height="1.5"/>
				</g>
				<g>
					<rect x="255.398" y="275.215" style="fill:#083C5A;" width="13.459" height="1.5"/>
				</g>
				<g>
					<rect x="218.334" y="278.698" style="fill:#083C5A;" width="4.33" height="1.5"/>
				</g>
				<g>
					<rect x="225.416" y="278.698" style="fill:#083C5A;" width="11.497" height="1.5"/>
				</g>
				<g>
					<rect x="239.782" y="278.698" style="fill:#083C5A;" width="19.955" height="1.5"/>
				</g>
				<g>
					<rect x="263.412" y="278.698" style="fill:#083C5A;" width="5.445" height="1.5"/>
				</g>
				<g>
					<rect x="224.044" y="282.181" style="fill:#083C5A;" width="6.543" height="1.5"/>
				</g>
				<g>
					<rect x="235.155" y="282.181" style="fill:#083C5A;" width="6.049" height="1.5"/>
				</g>
				<g>
					<rect x="245.031" y="282.181" style="fill:#083C5A;" width="11.975" height="1.5"/>
				</g>
				<g>
					<rect x="261.327" y="282.181" style="fill:#083C5A;" width="7.53" height="1.5"/>
				</g>
				<g>
					<rect x="218.334" y="285.664" style="fill:#083C5A;" width="19.846" height="1.5"/>
				</g>
				<g>
					<rect x="241.204" y="285.664" style="fill:#083C5A;" width="21.66" height="1.5"/>
				</g>
				<g>
					<rect x="218.334" y="289.147" style="fill:#083C5A;" width="12.253" height="1.5"/>
				</g>
				<g>
					<rect x="235.155" y="289.147" style="fill:#083C5A;" width="15.863" height="1.5"/>
				</g>
				<g>
					<rect x="254.499" y="289.147" style="fill:#083C5A;" width="14.358" height="1.5"/>
				</g>
				<g>
					<rect x="224.044" y="292.63" style="fill:#083C5A;" width="12.869" height="1.5"/>
				</g>
				<g>
					<rect x="240.418" y="292.63" style="fill:#083C5A;" width="16.588" height="1.5"/>
				</g>
				<g>
					<rect x="261.327" y="292.63" style="fill:#083C5A;" width="7.53" height="1.5"/>
				</g>
				<g>
					<rect x="218.334" y="296.112" style="fill:#083C5A;" width="12.253" height="1.5"/>
				</g>
				<g>
					<rect x="235.155" y="296.112" style="fill:#083C5A;" width="14.604" height="1.5"/>
				</g>
				<g>
					<rect x="254.034" y="296.112" style="fill:#083C5A;" width="14.823" height="1.5"/>
				</g>
			</g>
			<g>
				<g>
					<g>
						<path style="fill:#083C5A;" d="M154.583,192.712c-0.307,0-0.582-0.187-0.696-0.472l-5.267-13.186
							c-0.092-0.231-0.064-0.493,0.075-0.699c0.14-0.206,0.372-0.33,0.621-0.33h10.533c0.249,0,0.481,0.124,0.621,0.33
							c0.139,0.206,0.168,0.468,0.075,0.699l-5.267,13.186C155.166,192.525,154.89,192.712,154.583,192.712z M150.424,179.526
							l4.16,10.414l4.16-10.414H150.424z"/>
					</g>
					<g>
						<path style="fill:#083C5A;" d="M153.578,179.526h-3.977c-0.57,0-1.034-0.464-1.034-1.034v-46.454h5.011V179.526z
							 M150.067,178.026h2.011v-44.488h-2.011V178.026z"/>
					</g>
					<g>
						<path style="fill:#083C5A;" d="M157.089,179.526h-5.011v-47.488h5.011V179.526z M153.578,178.026h2.011v-44.488h-2.011
							V178.026z"/>
					</g>
					<g>
						<path style="fill:#083C5A;" d="M159.566,179.526h-3.977v-47.488h5.011v46.454C160.6,179.062,160.136,179.526,159.566,179.526z
							 M157.089,178.026h2.011v-44.488h-2.011V178.026z"/>
					</g>
					<g>
						<path style="fill:#083C5A;" d="M154.583,193.984l-3.384-8.472l6.736,0.082L154.583,193.984z M153.425,187.039l1.159,2.901
							l1.148-2.873L153.425,187.039z"/>
					</g>
					<g>
						<path style="fill:#083C5A;" d="M160.6,133.538h-12.033v-5.171H160.6V133.538z M150.067,132.038h9.033v-2.171h-9.033V132.038z"
							/>
					</g>
					<g>
						<path style="fill:#083C5A;" d="M160.6,129.867h-12.033v-3.284c0-1.714,1.395-3.109,3.109-3.109h5.815
							c1.714,0,3.109,1.395,3.109,3.109V129.867z M150.067,128.367h9.033v-1.784c0-0.887-0.722-1.609-1.609-1.609h-5.815
							c-0.887,0-1.609,0.722-1.609,1.609V128.367z"/>
					</g>
				</g>
				<g>
					<g>
						<path style="fill:#083C5A;" d="M179.415,192.712h-14.279v-69.238h14.279V192.712z M166.635,191.212h11.279v-66.238h-11.279
							V191.212z"/>
					</g>
					<g>
						<rect x="173.691" y="125.843" style="fill:#083C5A;" width="4.974" height="1.5"/>
					</g>
					<g>
						<rect x="176.178" y="129.343" style="fill:#083C5A;" width="2.487" height="1.5"/>
					</g>
					<g>
						<rect x="173.691" y="132.843" style="fill:#083C5A;" width="4.974" height="1.5"/>
					</g>
					<g>
						<rect x="176.178" y="136.343" style="fill:#083C5A;" width="2.487" height="1.5"/>
					</g>
					<g>
						<rect x="173.691" y="139.843" style="fill:#083C5A;" width="4.974" height="1.5"/>
					</g>
					<g>
						<rect x="176.178" y="143.343" style="fill:#083C5A;" width="2.487" height="1.5"/>
					</g>
					<g>
						<rect x="173.691" y="146.843" style="fill:#083C5A;" width="4.974" height="1.5"/>
					</g>
					<g>
						<rect x="176.178" y="150.343" style="fill:#083C5A;" width="2.487" height="1.5"/>
					</g>
					<g>
						<rect x="173.691" y="153.843" style="fill:#083C5A;" width="4.974" height="1.5"/>
					</g>
					<g>
						<rect x="176.178" y="157.343" style="fill:#083C5A;" width="2.487" height="1.5"/>
					</g>
					<g>
						<rect x="173.691" y="160.843" style="fill:#083C5A;" width="4.974" height="1.5"/>
					</g>
					<g>
						<rect x="176.178" y="164.343" style="fill:#083C5A;" width="2.487" height="1.5"/>
					</g>
					<g>
						<rect x="173.691" y="167.843" style="fill:#083C5A;" width="4.974" height="1.5"/>
					</g>
					<g>
						<rect x="176.178" y="171.343" style="fill:#083C5A;" width="2.487" height="1.5"/>
					</g>
					<g>
						<rect x="173.691" y="174.843" style="fill:#083C5A;" width="4.974" height="1.5"/>
					</g>
					<g>
						<rect x="176.178" y="178.343" style="fill:#083C5A;" width="2.487" height="1.5"/>
					</g>
					<g>
						<rect x="173.691" y="181.843" style="fill:#083C5A;" width="4.974" height="1.5"/>
					</g>
					<g>
						<rect x="176.178" y="185.343" style="fill:#083C5A;" width="2.487" height="1.5"/>
					</g>
					<g>
						<rect x="173.691" y="188.843" style="fill:#083C5A;" width="4.974" height="1.5"/>
					</g>
					<g>
						<path style="fill:#083C5A;" d="M169.432,129.692c-1.155,0-2.095-0.94-2.095-2.095c0-1.155,0.94-2.095,2.095-2.095
							c1.155,0,2.095,0.94,2.095,2.095C171.527,128.752,170.587,129.692,169.432,129.692z M169.432,127.002
							c-0.328,0-0.595,0.267-0.595,0.595c0,0.328,0.267,0.595,0.595,0.595c0.328,0,0.595-0.267,0.595-0.595
							C170.027,127.269,169.76,127.002,169.432,127.002z"/>
					</g>
				</g>
				<g>
					<g>
						<path style="fill:#63DCFF;" d="M223.443,123.365h6.182c4.419,0,8.001,3.582,8.001,8.001v53.454
							c0,4.419-3.582,8.001-8.001,8.001h-6.182V123.365z"/>
					</g>
					<g>
						<path style="fill:#63DCFF;" d="M217.8,192.821h-31.754c-0.744,0-1.347-0.603-1.347-1.347v-66.763
							c0-0.744,0.603-1.347,1.347-1.347H217.8V192.821z"/>
					</g>
					<g>
						<path style="fill:#083C5A;" d="M222.561,196.951h-3.879c-0.9,0-1.632-0.732-1.632-1.632v-74.451
							c0-0.9,0.732-1.632,1.632-1.632h3.879c0.9,0,1.632,0.732,1.632,1.632v74.451C224.193,196.218,223.461,196.951,222.561,196.951
							z M218.683,120.735c-0.073,0-0.132,0.06-0.132,0.132v74.451c0,0.073,0.06,0.132,0.132,0.132h3.879
							c0.073,0,0.132-0.06,0.132-0.132v-74.451c0-0.073-0.059-0.132-0.132-0.132H218.683z"/>
					</g>
					<g>
						<rect x="188.863" y="123.365" style="fill:#083C5A;" width="1.5" height="69.306"/>
					</g>
				</g>
			</g>
			<g>
				<g>
					<polygon style="fill:#2FE29B;" points="337.287,262.767 331.286,264.367 314.853,264.367 314.853,268.006 340.628,268.006 
						340.628,264.367 340.628,262.767 					"/>
				</g>
				<g>
					<rect x="318.968" y="309.117" style="fill:#63DCFF;" width="17.545" height="2.263"/>
				</g>
				<g>
					<path style="fill:#F7E041;" d="M336.512,309.117c-5.848,0-11.696,0-17.544,0c-1.372-12.189-2.743-24.379-4.115-36.568
						c8.592,0,17.184,0,25.775,0C339.256,284.739,337.884,296.928,336.512,309.117z"/>
				</g>
				<g>
					<path style="fill:#083C5A;" d="M343.883,273.3h-32.285v-3.387c0-1.465,1.191-2.657,2.656-2.657h26.972
						c1.465,0,2.657,1.192,2.657,2.657V273.3z M313.098,271.8h29.285v-1.887c0-0.638-0.52-1.157-1.157-1.157h-26.972
						c-0.638,0-1.156,0.52-1.156,1.157V271.8z"/>
				</g>
				<g>
					<path style="fill:#083C5A;" d="M338.736,296.06h-21.992l-1.524-13.547h25.041L338.736,296.06z M318.084,294.56h19.312
						l1.187-10.547h-21.686L318.084,294.56z"/>
				</g>
				<g>
					<path style="fill:#083C5A;" d="M339.422,284.014h-23.363c-0.414,0-0.75-0.336-0.75-0.75c0-0.414,0.336-0.75,0.75-0.75h23.363
						c0.414,0,0.75,0.336,0.75,0.75C340.172,283.678,339.836,284.014,339.422,284.014z"/>
				</g>
			</g>
			<g>
				<g>
					<path style="fill:#63DCFF;" d="M362.879,317.309h-14.431c-1.654,0-2.996-1.341-2.996-2.995v-20.585
						c0-1.655,1.341-2.996,2.996-2.996h14.431c1.654,0,2.995,1.341,2.995,2.996v20.585
						C365.874,315.968,364.533,317.309,362.879,317.309z"/>
				</g>
				<g>
					<path style="fill:#053F64;" d="M362.715,303.688h-14.102V293.17h14.102V303.688z M350.112,302.188h11.102v-7.518h-11.102
						V302.188z"/>
				</g>
				<g>
					<path style="fill:#083C5A;" d="M355.664,315.69c-2.896,0-5.252-2.357-5.252-5.252s2.357-5.252,5.252-5.252
						s5.251,2.357,5.251,5.252S358.56,315.69,355.664,315.69z M355.664,306.685c-2.068,0-3.752,1.684-3.752,3.752
						s1.684,3.752,3.752,3.752c2.068,0,3.751-1.684,3.751-3.752S357.732,306.685,355.664,306.685z"/>
				</g>
				<g>
					<path style="fill:#083C5A;" d="M355.664,312.574c-1.178,0-2.137-0.959-2.137-2.137s0.959-2.137,2.137-2.137
						c1.178,0,2.137,0.959,2.137,2.137S356.842,312.574,355.664,312.574z M355.664,309.801c-0.352,0-0.637,0.285-0.637,0.637
						s0.285,0.637,0.637,0.637c0.352,0,0.637-0.285,0.637-0.637S356.016,309.801,355.664,309.801z"/>
				</g>
				<g>
					<path style="fill:#083C5A;" d="M351.985,291.483h-4.207v-5.159h4.207V291.483z M349.278,289.983h1.207v-2.159h-1.207V289.983z"
						/>
				</g>
				<g>
					<path style="fill:#083C5A;" d="M372.436,297.919h-5v-5.159h5V297.919z M368.936,296.419h2v-2.159h-2V296.419z"/>
				</g>
				<g>
					<path style="fill:#083C5A;" d="M370.686,293.51h-1.5v-11.298c0-1.039-0.845-1.885-1.884-1.885h-14.787
						c-1.039,0-1.884,0.846-1.884,1.885v4.862h-1.5v-4.862c0-1.866,1.518-3.385,3.384-3.385h14.787c1.866,0,3.384,1.519,3.384,3.385
						V293.51z"/>
				</g>
				<g>
					<path style="fill:#083C5A;" d="M376.97,317.007h-2.649c-1.864,0-3.382-1.517-3.384-3.381l0,0l0,0v-16.457h1.5v16.453
						c0,1.039,0.845,1.885,1.884,1.885h2.649V317.007z"/>
				</g>
				<g>
					<path style="fill:#2FE29B;" d="M382.254,314.072c-0.839,0-1.567,0.474-1.933,1.168h-3.352v2.035h3.352
						c0.366,0.694,1.094,1.167,1.933,1.167c1.207,0,2.185-0.978,2.185-2.185C384.439,315.05,383.461,314.072,382.254,314.072z"/>
				</g>
				<g>
					<path style="fill:#083C5A;" d="M374.264,325.074h-3.442c-1.866,0-3.385-1.518-3.385-3.385v-24.55h1.5v24.55
						c0,1.039,0.846,1.885,1.885,1.885h3.442V325.074z"/>
				</g>
				<g>
					<path style="fill:#2FE29B;" d="M379.548,322.139c-0.839,0-1.567,0.474-1.933,1.167h-3.352v2.035h3.352
						c0.366,0.694,1.094,1.167,1.933,1.167c1.207,0,2.185-0.978,2.185-2.185C381.733,323.117,380.755,322.139,379.548,322.139z"/>
				</g>
			</g>
			<g>
				<g>
					<path style="fill:#F7E041;" d="M376.817,260.196c0-0.302,0.023-0.599,0.067-0.888c-0.022,0-0.044-0.002-0.067-0.002
						c-4.805,0-8.7,3.895-8.7,8.7c0,4.805,3.895,8.7,8.7,8.7c4.805,0,8.7-3.895,8.7-8.7c0-0.861-0.127-1.692-0.36-2.477
						c-0.75,0.347-1.585,0.542-2.465,0.542C379.447,266.071,376.817,263.441,376.817,260.196z"/>
				</g>
				<g>
					<path style="fill:#083C5A;" d="M373.67,266.686c-1.096,0-1.986-0.891-1.986-1.986s0.891-1.986,1.986-1.986
						s1.987,0.891,1.987,1.986S374.766,266.686,373.67,266.686z M373.67,264.214c-0.268,0-0.486,0.218-0.486,0.486
						c0,0.269,0.218,0.486,0.486,0.486c0.269,0,0.487-0.218,0.487-0.486C374.157,264.432,373.938,264.214,373.67,264.214z"/>
				</g>
				<g>
					<path style="fill:#083C5A;" d="M381.104,273.002c-1.117,0-2.025-0.908-2.025-2.025c0-1.116,0.908-2.025,2.025-2.025
						s2.025,0.908,2.025,2.025C383.13,272.094,382.222,273.002,381.104,273.002z M381.104,270.452c-0.29,0-0.525,0.235-0.525,0.525
						c0,0.29,0.235,0.525,0.525,0.525s0.525-0.235,0.525-0.525C381.63,270.688,381.395,270.452,381.104,270.452z"/>
				</g>
				<g>
					<path style="fill:#083C5A;" d="M376.817,270.19c-1.204,0-2.185-0.98-2.185-2.184s0.98-2.184,2.185-2.184
						s2.184,0.979,2.184,2.184S378.021,270.19,376.817,270.19z M376.817,267.322c-0.378,0-0.685,0.307-0.685,0.684
						c0,0.377,0.307,0.684,0.685,0.684c0.377,0,0.684-0.307,0.684-0.684C377.501,267.629,377.194,267.322,376.817,267.322z"/>
				</g>
				<g>
					<path style="fill:#083C5A;" d="M371.577,271.303c-0.994,0-1.804-0.809-1.804-1.803s0.81-1.804,1.804-1.804
						c0.994,0,1.804,0.81,1.804,1.804S372.571,271.303,371.577,271.303z M371.577,269.196c-0.167,0-0.304,0.137-0.304,0.304
						s0.137,0.303,0.304,0.303c0.167,0,0.304-0.136,0.304-0.303S371.744,269.196,371.577,269.196z"/>
				</g>
				<g>
					<path style="fill:#083C5A;" d="M376.324,275.543c-1.279,0-2.32-1.04-2.32-2.319s1.041-2.32,2.32-2.32s2.319,1.041,2.319,2.32
						S377.603,275.543,376.324,275.543z M376.324,272.403c-0.452,0-0.82,0.368-0.82,0.82c0,0.452,0.368,0.819,0.82,0.819
						c0.452,0,0.819-0.367,0.819-0.819C377.144,272.772,376.776,272.403,376.324,272.403z"/>
				</g>
				<g>
					<path style="fill:#083C5A;" d="M388.413,277.456c-2.336,0-4.533-1.142-5.88-3.055l1.227-0.863
						c1.065,1.514,2.806,2.418,4.653,2.418c3.134,0,5.684-2.55,5.684-5.684c0-3.135-2.55-5.685-5.684-5.685
						c-1.621,0-3.17,0.695-4.249,1.908l-1.121-0.996c1.363-1.533,3.32-2.412,5.37-2.412c3.961,0,7.184,3.223,7.184,7.185
						C395.597,274.233,392.374,277.456,388.413,277.456z"/>
				</g>
			</g>
			<g>
				<g>
					<path style="fill:#F7E041;" d="M97.753,165.652c0-8.758-7.301-15.811-16.149-15.403c-8.053,0.371-14.522,7.02-14.688,15.079
						c-0.092,4.501,1.746,8.572,4.742,11.447c1.975,1.894,3.033,4.552,3.033,7.288v5.636c0,1.75,1.432,3.182,3.182,3.182h8.92
						c1.75,0,3.182-1.432,3.182-3.182v-5.768c0-2.726,1.134-5.315,3.091-7.212C95.956,173.918,97.753,169.996,97.753,165.652z"/>
				</g>
				<g>
					<path style="fill:#083C5A;" d="M85.451,200.63h-6.237c-1.098,0-1.99-0.893-1.99-1.99v-6.51h10.217v6.51
						C87.441,199.738,86.549,200.63,85.451,200.63z M78.724,193.63v5.01c0,0.27,0.22,0.49,0.49,0.49h6.237
						c0.271,0,0.49-0.22,0.49-0.49v-5.01H78.724z"/>
				</g>
				<g>
					<path style="fill:#083C5A;" d="M83.883,203.768h-3.14c-1.256,0-2.278-1.022-2.278-2.278v-2.359h7.697v2.359
						C86.161,202.746,85.139,203.768,83.883,203.768z M79.964,200.63v0.859c0,0.429,0.349,0.778,0.778,0.778h3.14
						c0.429,0,0.778-0.349,0.778-0.778v-0.859H79.964z"/>
				</g>
				<g>
					<path style="fill:#083C5A;" d="M86.691,197.13h-5.968c-0.414,0-0.75-0.336-0.75-0.75c0-0.414,0.336-0.75,0.75-0.75h5.968
						c0.414,0,0.75,0.336,0.75,0.75C87.441,196.794,87.105,197.13,86.691,197.13z"/>
				</g>
				<g>
					<rect x="80.168" y="168.932" style="fill:#083C5A;" width="1.5" height="23.949"/>
				</g>
				<g>
					<rect x="82.998" y="168.932" style="fill:#083C5A;" width="1.5" height="23.949"/>
				</g>
				<g>
					<path style="fill:#083C5A;" d="M81.668,169.689h-4.036c-2.225,0-4.036-1.811-4.036-4.036s1.811-4.036,4.036-4.036
						c2.225,0,4.036,1.811,4.036,4.036V169.689z M77.632,163.117c-1.398,0-2.536,1.138-2.536,2.536c0,1.398,1.138,2.536,2.536,2.536
						h2.536v-2.536C80.168,164.255,79.03,163.117,77.632,163.117z"/>
				</g>
				<g>
					<path style="fill:#083C5A;" d="M87.034,169.689h-4.036v-4.036c0-2.225,1.811-4.036,4.036-4.036s4.036,1.811,4.036,4.036
						S89.259,169.689,87.034,169.689z M84.498,168.189h2.536c1.398,0,2.536-1.138,2.536-2.536c0-1.398-1.138-2.536-2.536-2.536
						c-1.398,0-2.536,1.138-2.536,2.536V168.189z"/>
				</g>
				<g>
					<rect x="80.918" y="168.182" style="fill:#083C5A;" width="2.83" height="1.5"/>
				</g>
				<g>
					<path style="fill:#083C5A;" d="M94.928,229.665h-1.5v-13.819h6.946c2.884,0,5.231-2.346,5.231-5.23v-10.006h4.297
						c0.134,0,0.204-0.083,0.234-0.132c0.03-0.049,0.07-0.15,0.008-0.268l-4.539-8.598v-0.186c0-7.655-3.416-14.797-9.371-19.594
						l0.941-1.168c6.262,5.044,9.873,12.534,9.929,20.575l4.366,8.27c0.293,0.554,0.274,1.206-0.049,1.743
						c-0.324,0.537-0.892,0.857-1.519,0.857h-2.797v8.506c0,3.712-3.02,6.73-6.731,6.73h-5.446V229.665z"/>
				</g>
				<g>
					<path style="fill:#083C5A;" d="M69.616,229.665h-1.5v-7.126c0-4.772-1.924-9.333-5.279-12.512
						c-5.633-5.34-8.596-12.819-8.126-20.52c0.512-8.402,5.108-16.11,12.296-20.617l0.797,1.27
						c-6.778,4.251-11.113,11.517-11.596,19.437c-0.442,7.257,2.351,14.306,7.662,19.34c3.652,3.462,5.747,8.419,5.747,13.601
						V229.665z"/>
				</g>
			</g>
			<g>
				<g>
					<path style="fill:#053F64;" d="M103.303,168.932h-1.5c0-21.877,17.798-39.675,39.674-39.675v1.5
						C120.428,130.757,103.303,147.882,103.303,168.932z"/>
				</g>
				<g>
					<polygon style="fill:#053F64;" points="137.15,135.398 136.089,134.337 140.418,130.008 136.089,125.68 137.15,124.619 
						142.227,129.696 142.227,130.317 					"/>
				</g>
			</g>
			<g>
				<g>
					<polygon style="fill:#053F64;" points="165.223,271.107 160.146,266.029 160.146,265.408 165.223,260.328 166.284,261.389 
						161.955,265.718 166.284,270.047 					"/>
				</g>
				<g>
					<polygon style="fill:#053F64;" points="185.45,266.465 160.895,266.465 160.895,264.965 183.95,264.965 183.95,203.018 
						185.45,203.018 					"/>
				</g>
			</g>
			<g>
				<g>
					<polygon style="fill:#053F64;" points="193.777,284.697 192.716,283.637 197.045,279.308 192.716,274.979 193.777,273.919 
						198.854,278.996 198.854,279.617 					"/>
				</g>
				<g>
					<rect x="160.895" y="278.558" style="fill:#053F64;" width="36.47" height="1.5"/>
				</g>
			</g>
			<g>
				<g>
					<polygon style="fill:#053F64;" points="273.185,211.762 268.856,207.433 264.528,211.762 263.468,210.701 268.545,205.624 
						269.166,205.624 274.246,210.701 					"/>
				</g>
				<g>
					<rect x="268.107" y="207.095" style="fill:#053F64;" width="1.5" height="47.831"/>
				</g>
			</g>
			<g>
				<g>
					<polygon style="fill:#053F64;" points="341.14,189.473 340.079,188.412 344.408,184.083 340.079,179.754 341.14,178.694 
						346.218,183.771 346.218,184.393 					"/>
				</g>
				<g>
					<rect x="326.137" y="183.333" style="fill:#053F64;" width="18.609" height="1.5"/>
				</g>
			</g>
			<g>
				<g>
					<path style="fill:#63DCFF;" d="M372.085,196.544c-0.431-1.937-2.603-3.352-5.143-3.352h-3.132c0,1.514-1.586,2.741-3.543,2.741
						c-1.957,0-3.543-1.227-3.543-2.741h-3.132c-2.541,0-4.712,1.415-5.144,3.352l-2.858,9.648h29.353L372.085,196.544z"/>
				</g>
				<g>
					<path style="fill:#083C5A;" d="M360.267,189.592c-3.48,0-10.566-5.828-10.566-12.591h1.5c0,6.173,6.511,11.091,9.066,11.091
						c2.556,0,9.067-4.919,9.067-11.091h1.5C370.834,183.764,363.746,189.592,360.267,189.592z"/>
				</g>
				<g>
					<path style="fill:#2FE29B;" d="M350.45,177.001l-2.065-16.763c0,0,4.271,0.688,10.904-1.601
						c4.895-1.688,12.313,0.794,12.316,4.143c0.003,3.349-1.521,14.221-1.521,14.221s-0.827-9.469-5.783-9.99
						c-5.15-0.542-6.889,1.306-10.238,0.413C352.703,171.583,351.517,170.457,350.45,177.001z"/>
				</g>
				<g>
					<path style="fill:#083C5A;" d="M357.381,176.775h-2.229c-1.617,0-2.934-1.316-2.934-2.934v-0.286
						c0-1.618,1.316-2.934,2.934-2.934h2.229c1.617,0,2.934,1.316,2.934,2.934v0.286
						C360.314,175.458,358.998,176.775,357.381,176.775z M355.151,172.121c-0.79,0-1.434,0.643-1.434,1.434v0.286
						c0,0.79,0.643,1.434,1.434,1.434h2.229c0.79,0,1.434-0.644,1.434-1.434v-0.286c0-0.79-0.644-1.434-1.434-1.434H355.151z"/>
				</g>
				<g>
					<path style="fill:#083C5A;" d="M365.382,176.775h-2.229c-1.618,0-2.935-1.316-2.935-2.934v-0.286
						c0-1.618,1.316-2.934,2.935-2.934h2.229c1.617,0,2.934,1.316,2.934,2.934v0.286
						C368.315,175.458,366.999,176.775,365.382,176.775z M363.153,172.121c-0.791,0-1.435,0.643-1.435,1.434v0.286
						c0,0.79,0.644,1.434,1.435,1.434h2.229c0.79,0,1.434-0.644,1.434-1.434v-0.286c0-0.79-0.643-1.434-1.434-1.434H363.153z"/>
				</g>
				<g>
					<rect x="367.565" y="172.805" style="fill:#083C5A;" width="1.875" height="1.5"/>
				</g>
				<g>
					<rect x="350.868" y="172.805" style="fill:#083C5A;" width="2.1" height="1.5"/>
				</g>
				<g>
					<rect x="359.564" y="172.805" style="fill:#083C5A;" width="1.404" height="1.5"/>
				</g>
				<g>
					<path style="fill:#083C5A;" d="M365.059,205.29l-3.085-1.725v-5.858h6.169v5.858L365.059,205.29z M363.474,202.685l1.585,0.886
						l1.584-0.886v-3.479h-3.169V202.685z"/>
				</g>
				<g>
					<polygon style="fill:#083C5A;" points="363.81,193.942 362.632,193.942 362.632,187.714 364.132,187.714 364.132,193.192 
						363.81,193.192 					"/>
				</g>
				<g>
					<polygon style="fill:#083C5A;" points="357.902,193.942 356.724,193.942 356.724,193.192 356.402,193.192 356.402,187.714 
						357.902,187.714 					"/>
				</g>
			</g>
			<g>
				<g>
					<polygon style="fill:#053F64;" points="352.019,275.411 346.941,270.334 346.941,269.713 352.019,264.633 353.079,265.693 
						348.751,270.022 353.079,274.351 					"/>
				</g>
				<g>
					<polygon style="fill:#053F64;" points="362.088,270.772 348.625,270.772 348.625,269.272 360.588,269.272 360.588,208.994 
						362.088,208.994 					"/>
				</g>
			</g>
		</g>
	</g>
	<g>
		<g>
			<rect x="266.135" y="285.664" style="fill:#083C5A;" width="2.723" height="1.5"/>
		</g>
		<g>
			<g>
				
					<rect x="309.376" y="124.961" transform="matrix(0.7071 -0.7071 0.7071 0.7071 6.0021 265.9123)" style="fill:#083C5A;" width="29.223" height="1.5"/>
			</g>
			<g>
				
					<rect x="346.146" y="111.099" transform="matrix(0.7071 -0.7071 0.7071 0.7071 12.7127 282.1129)" style="fill:#083C5A;" width="1.5" height="29.223"/>
			</g>
			<g>
				<path style="fill:#F7E041;" d="M335.441,118.03l-4.755,11.734l0.9,0.935c0.825,0.868,1.508,1.879,2.019,2.99l0.268,0.581h3.138
					l0.268-0.581c0.511-1.111,1.194-2.121,2.019-2.99l0.9-0.935L335.441,118.03z"/>
			</g>
			<g>
				<rect x="334.691" y="118.03" style="fill:#083C5A;" width="1.5" height="8.08"/>
			</g>
			<g>
				<path style="fill:#083C5A;" d="M335.441,127.766c-0.882,0-1.6-0.744-1.6-1.658s0.718-1.658,1.6-1.658
					c0.882,0,1.6,0.744,1.6,1.658S336.323,127.766,335.441,127.766z M335.441,125.95c-0.041,0-0.1,0.062-0.1,0.158
					c0,0.192,0.199,0.192,0.199,0C335.541,126.012,335.482,125.95,335.441,125.95z"/>
			</g>
			<g>
				<rect x="333.278" y="134.271" style="fill:#2FE29B;" width="4.327" height="3.115"/>
			</g>
			<g>
				<rect x="333.278" y="146.091" style="fill:#2FE29B;" width="4.327" height="23.081"/>
			</g>
			<g>
				<path style="fill:#083C5A;" d="M339.173,146.841h-7.463v-10.204h7.463V146.841z M333.21,145.341h4.463v-7.204h-4.463V145.341z"
					/>
			</g>
			<g>
				<path style="fill:#083C5A;" d="M335.441,117.561l-3.304-3.304l3.304-3.304l3.304,3.304L335.441,117.561z M334.259,114.257
					l1.183,1.183l1.183-1.183l-1.183-1.183L334.259,114.257z"/>
			</g>
			<g>
				<rect x="337.685" y="113.507" style="fill:#083C5A;" width="19.543" height="1.5"/>
			</g>
			<g>
				<rect x="313.655" y="113.507" style="fill:#083C5A;" width="19.543" height="1.5"/>
			</g>
			<g>
				<g>
					
						<rect x="337.386" y="154.385" transform="matrix(0.7071 -0.7071 0.7071 0.7071 -10.6592 284.536)" style="fill:#083C5A;" width="1.5" height="1.5"/>
				</g>
				<g>
					<path style="fill:#083C5A;" d="M341.141,153.19l-1.061-1.061l1.944-1.944l1.061,1.061L341.141,153.19z M345.029,149.301
						l-1.061-1.061l1.945-1.944l1.06,1.061L345.029,149.301z M348.919,145.412l-1.06-1.061l1.944-1.944l1.061,1.061L348.919,145.412
						z M352.808,141.523l-1.06-1.061l1.944-1.945l1.061,1.061L352.808,141.523z"/>
				</g>
				<g>
					
						<rect x="355.946" y="135.823" transform="matrix(0.7074 -0.7068 0.7068 0.7074 7.8362 292.0761)" style="fill:#083C5A;" width="1.501" height="1.501"/>
				</g>
			</g>
			<g>
				<g>
					
						<rect x="313.436" y="135.823" transform="matrix(0.7068 -0.7074 0.7074 0.7068 -4.4961 262.2984)" style="fill:#083C5A;" width="1.501" height="1.501"/>
				</g>
				<g>
					<path style="fill:#083C5A;" d="M329.742,153.19l-1.944-1.944l1.061-1.061l1.944,1.944L329.742,153.19z M325.853,149.301
						l-1.944-1.944l1.061-1.061l1.944,1.944L325.853,149.301z M321.965,145.412l-1.945-1.944l1.061-1.061l1.945,1.944
						L321.965,145.412z M318.075,141.523l-1.944-1.944l1.061-1.061l1.944,1.944L318.075,141.523z"/>
				</g>
				<g>
					
						<rect x="331.997" y="154.385" transform="matrix(0.7068 -0.7074 0.7074 0.7068 -12.1776 280.8899)" style="fill:#083C5A;" width="1.501" height="1.501"/>
				</g>
			</g>
		</g>
		<g>
			<g>
				<rect x="248.712" y="122.615" style="fill:#053F64;" width="1.5" height="1.5"/>
			</g>
			<g>
				<path style="fill:#053F64;" d="M294.26,124.115h-3.147v-1.5h3.147V124.115z M287.967,124.115h-3.146v-1.5h3.146V124.115z
					 M281.675,124.115h-3.147v-1.5h3.147V124.115z M275.382,124.115h-3.146v-1.5h3.146V124.115z M269.09,124.115h-3.146v-1.5h3.146
					V124.115z M262.797,124.115h-3.146v-1.5h3.146V124.115z M256.505,124.115h-3.146v-1.5h3.146V124.115z"/>
			</g>
			<g>
				<rect x="297.406" y="122.615" style="fill:#053F64;" width="1.5" height="1.5"/>
			</g>
		</g>
		<g>
			<path style="fill:#053F64;" d="M45.797,307.095h-1.5v-0.487h1.5V307.095z M45.797,303.607h-1.5v-3h1.5V303.607z M45.797,297.607
				h-1.5v-3h1.5V297.607z M45.797,291.607h-1.5v-3h1.5V291.607z M45.797,285.607h-1.5v-3h1.5V285.607z M45.797,279.607h-1.5v-3h1.5
				V279.607z M45.797,273.607h-1.5v-3h1.5V273.607z M45.797,267.607h-1.5v-3h1.5V267.607z M45.797,261.607h-1.5v-3h1.5V261.607z
				 M45.797,255.607h-1.5v-3h1.5V255.607z M45.797,249.607h-1.5v-3h1.5V249.607z M45.797,243.607h-1.5v-3h1.5V243.607z"/>
		</g>
		<g>
			<path style="fill:#053F64;" d="M406.518,206.942h-3v-1.5h3V206.942z M400.518,206.942h-3v-1.5h3V206.942z M394.518,206.942h-3
				v-1.5h3V206.942z M388.518,206.942h-3v-1.5h3V206.942z"/>
		</g>
		<g>
			<path style="fill:#053F64;" d="M144.126,172.843h-1.858v-1.5h1.858V172.843z M139.267,172.843h-3v-1.5h3V172.843z
				 M133.267,172.843h-3v-1.5h3V172.843z M127.267,172.843h-3v-1.5h3V172.843z M121.267,172.843h-3v-1.5h3V172.843z
				 M115.267,172.843h-3v-1.5h3V172.843z M109.267,172.843h-3v-1.5h3V172.843z"/>
		</g>
		<g>
			<path style="fill:#053F64;" d="M264.698,323.358h-2.311v-1.5h2.311V323.358z M259.387,323.358h-3v-1.5h3V323.358z
				 M253.387,323.358h-3v-1.5h3V323.358z M247.387,323.358h-3v-1.5h3V323.358z M241.387,323.358h-3v-1.5h3V323.358z
				 M235.387,323.358h-3v-1.5h3V323.358z M229.387,323.358h-3v-1.5h3V323.358z M223.387,323.358h-3v-1.5h3V323.358z
				 M217.387,323.358h-3v-1.5h3V323.358z M211.387,323.358h-3v-1.5h3V323.358z"/>
		</g>
		<g>
			<path style="fill:#053F64;" d="M127.219,158.745c-0.312-0.001-0.636-0.024-0.946-0.074l0.237-1.481
				c0.23,0.037,0.466,0.056,0.705,0.056c0.001,0,0.002,0,0.003,0c0.628,0,1.234-0.128,1.802-0.38l0.609,1.37
				C128.869,158.573,128.058,158.745,127.219,158.745z M123.222,157.206c-0.858-0.777-1.467-1.777-1.761-2.891l1.45-0.382
				c0.219,0.831,0.675,1.579,1.317,2.161L123.222,157.206z M132.205,156.039l-1.257-0.818c0.47-0.722,0.719-1.561,0.719-2.426
				c0-0.772-0.201-1.533-0.581-2.2l1.304-0.743c0.508,0.893,0.777,1.91,0.777,2.942
				C133.167,153.951,132.834,155.073,132.205,156.039z M122.987,151.401l-1.425-0.469c0.36-1.094,1.027-2.055,1.93-2.78l0.939,1.169
				C123.755,149.864,123.256,150.583,122.987,151.401z M129.259,148.839c-0.768-0.397-1.642-0.556-2.487-0.474l-0.146-1.493
				c1.117-0.112,2.308,0.109,3.323,0.635L129.259,148.839z"/>
		</g>
		<g>
			<path style="fill:#053F64;" d="M255.398,145.413c-3.281,0-5.951-2.669-5.951-5.951c0-3.281,2.67-5.951,5.951-5.951
				c3.281,0,5.95,2.67,5.95,5.951C261.349,142.744,258.68,145.413,255.398,145.413z M255.398,135.011
				c-2.454,0-4.451,1.997-4.451,4.451c0,2.454,1.997,4.451,4.451,4.451c2.454,0,4.45-1.997,4.45-4.451
				C259.849,137.008,257.853,135.011,255.398,135.011z"/>
		</g>
		<g>
			<path style="fill:#053F64;" d="M255.403,149.513c-0.135-0.001-0.283-0.002-0.423-0.008l0.063-1.499
				c0.12,0.005,0.224,0.002,0.36,0.007c0.805,0,1.601-0.112,2.366-0.332l0.416,1.441
				C257.284,149.381,256.349,149.513,255.403,149.513z M251.819,148.856c-1.015-0.386-1.953-0.932-2.792-1.621l0.953-1.158
				c0.712,0.586,1.511,1.049,2.372,1.378L251.819,148.856z M261.101,147.739l-0.852-1.234c0.759-0.524,1.426-1.165,1.982-1.902
				l1.197,0.903C262.776,146.371,261.993,147.123,261.101,147.739z M246.891,144.818c-0.579-0.919-1.003-1.919-1.259-2.972
				l1.457-0.355c0.218,0.896,0.578,1.746,1.071,2.526L246.891,144.818z M264.932,142.648l-1.422-0.476
				c0.291-0.872,0.438-1.784,0.438-2.71h1.5C265.448,140.551,265.274,141.623,264.932,142.648z M246.877,138.753l-1.494-0.123
				c0.089-1.085,0.351-2.139,0.779-3.133l1.377,0.593C247.176,136.935,246.953,137.831,246.877,138.753z M263.846,138.128
				c-0.143-0.911-0.431-1.788-0.856-2.607l1.33-0.691c0.501,0.963,0.841,1.995,1.009,3.066L263.846,138.128z M249.015,133.773
				l-1.119-0.998c0.722-0.811,1.565-1.495,2.505-2.034l0.746,1.301C250.347,132.501,249.63,133.083,249.015,133.773z
				 M261.347,133.32c-0.665-0.644-1.424-1.172-2.253-1.571l0.648-1.352c0.976,0.468,1.866,1.089,2.647,1.845L261.347,133.32z
				 M253.715,131.077l-0.293-1.471c0.646-0.129,1.308-0.194,1.97-0.194c0.002,0,0.005,0,0.008,0c0.416,0,0.835,0.026,1.245,0.077
				l-0.184,1.488c-0.352-0.044-0.705-0.05-1.069-0.065C254.828,130.912,254.265,130.968,253.715,131.077z"/>
		</g>
		<g>
			<path style="fill:#053F64;" d="M134.59,209.322l-2.134-3.115h-1.673l-2.134,3.115l-0.501-0.12
				c-0.772-0.184-1.53-0.429-2.25-0.729l-0.477-0.198l0.104-3.776l-1.354-0.983l-3.554,1.264l-0.335-0.392
				c-0.519-0.606-0.988-1.249-1.394-1.91l-0.271-0.44l2.305-2.993l-0.519-1.593l-3.617-1.065l-0.04-0.515
				c-0.031-0.391-0.051-0.784-0.051-1.183c0-0.398,0.02-0.792,0.051-1.183l0.04-0.515l3.617-1.065l0.519-1.593l-2.304-2.993
				l0.27-0.44c0.405-0.66,0.873-1.303,1.394-1.91l0.335-0.392l3.554,1.264l1.354-0.983l-0.104-3.777l0.476-0.198
				c0.718-0.298,1.475-0.544,2.25-0.728l0.501-0.12l2.134,3.115h1.673l2.134-3.115l0.501,0.12c0.775,0.184,1.533,0.43,2.25,0.728
				l0.476,0.198l-0.105,3.777l1.354,0.983l3.554-1.264l0.336,0.392c0.52,0.607,0.989,1.25,1.393,1.91l0.27,0.44l-2.304,2.993
				l0.519,1.593l3.617,1.065l0.04,0.515c0.031,0.391,0.051,0.784,0.051,1.183c0,0.399-0.021,0.792-0.051,1.183l-0.04,0.515
				l-3.617,1.065l-0.519,1.593l2.305,2.993l-0.271,0.44c-0.406,0.662-0.874,1.304-1.393,1.91l-0.336,0.392l-3.554-1.264
				l-1.354,0.983l0.105,3.776l-0.476,0.198c-0.719,0.299-1.476,0.544-2.25,0.729L134.59,209.322z M126.95,207.276
				c0.343,0.127,0.694,0.241,1.05,0.34l1.992-2.908h3.254l1.993,2.908c0.356-0.1,0.707-0.213,1.05-0.339l-0.098-3.525l2.633-1.913
				l3.318,1.181c0.231-0.291,0.449-0.589,0.652-0.892l-2.15-2.793l1.008-3.097l3.376-0.995c0.009-0.183,0.014-0.367,0.014-0.553
				c0-0.185-0.005-0.369-0.014-0.552l-3.376-0.995l-1.008-3.097l2.15-2.793c-0.203-0.303-0.421-0.601-0.652-0.892l-3.318,1.181
				l-2.633-1.913l0.098-3.525c-0.342-0.126-0.693-0.24-1.05-0.339l-1.993,2.908h-3.254L128,181.764
				c-0.357,0.099-0.708,0.213-1.05,0.339l0.098,3.525l-2.633,1.913l-3.318-1.181c-0.231,0.291-0.449,0.589-0.652,0.892l2.15,2.793
				l-1.008,3.097l-3.376,0.995c-0.009,0.183-0.014,0.367-0.014,0.552c0,0.186,0.005,0.37,0.014,0.553l3.376,0.995l1.008,3.097
				l-2.15,2.793c0.203,0.303,0.421,0.602,0.652,0.892l3.318-1.181l2.633,1.913L126.95,207.276z M131.62,202.116
				c-4.095,0-7.427-3.332-7.427-7.426c0-4.095,3.332-7.426,7.427-7.426c4.095,0,7.426,3.331,7.426,7.426
				C139.046,198.784,135.714,202.116,131.62,202.116z M131.62,188.763c-3.268,0-5.927,2.659-5.927,5.926
				c0,3.268,2.659,5.926,5.927,5.926c3.268,0,5.926-2.659,5.926-5.926C137.546,191.422,134.887,188.763,131.62,188.763z"/>
		</g>
		<g>
			<path style="fill:#053F64;" d="M166.462,324.35l-0.501-0.119c-0.775-0.184-1.532-0.429-2.25-0.728l-0.476-0.197l0.105-3.778
				l-1.354-0.983l-3.554,1.266l-0.335-0.392c-0.519-0.607-0.988-1.249-1.394-1.91l-0.271-0.44l2.305-2.993l-0.519-1.594
				l-3.618-1.065l-0.04-0.516c-0.03-0.39-0.051-0.783-0.051-1.182c0-0.398,0.021-0.792,0.051-1.182l0.04-0.516l3.618-1.065
				l0.519-1.594l-2.305-2.993l0.271-0.44c0.406-0.661,0.875-1.304,1.394-1.91l0.335-0.392l3.554,1.266l1.354-0.983l-0.105-3.777
				l0.476-0.197c0.722-0.3,1.479-0.545,2.25-0.728l0.501-0.119l2.134,3.114h1.673l2.134-3.114l0.501,0.119
				c0.771,0.183,1.528,0.428,2.251,0.728l0.476,0.197l-0.105,3.777l1.354,0.983l3.554-1.266l0.335,0.392
				c0.519,0.606,0.988,1.249,1.394,1.91l0.27,0.44l-2.305,2.993l0.519,1.594l3.617,1.065l0.041,0.515
				c0.031,0.391,0.051,0.784,0.051,1.183c0,0.398-0.021,0.792-0.051,1.183l-0.041,0.515l-3.617,1.065l-0.519,1.594l2.305,2.993
				l-0.27,0.44c-0.406,0.661-0.874,1.304-1.394,1.91l-0.335,0.392l-3.554-1.266l-1.354,0.983l0.105,3.778l-0.477,0.197
				c-0.72,0.299-1.477,0.544-2.251,0.728l-0.501,0.119l-2.134-3.114h-1.673L166.462,324.35z M167.806,319.735h3.254l1.992,2.908
				c0.356-0.099,0.708-0.212,1.05-0.339l-0.098-3.525l2.633-1.913l3.318,1.181c0.231-0.291,0.449-0.589,0.652-0.893l-2.15-2.793
				l1.008-3.096l3.377-0.995c0.009-0.184,0.014-0.367,0.014-0.553c0-0.186-0.005-0.369-0.014-0.553l-3.377-0.995l-1.008-3.096
				l2.15-2.793c-0.203-0.304-0.421-0.602-0.652-0.893l-3.318,1.181l-2.633-1.913l0.098-3.525c-0.344-0.128-0.695-0.241-1.05-0.34
				l-1.992,2.908h-3.254l-1.993-2.908c-0.355,0.099-0.706,0.213-1.05,0.34l0.098,3.525l-2.633,1.913l-3.318-1.181
				c-0.231,0.291-0.449,0.589-0.652,0.893l2.15,2.793l-1.008,3.096l-3.376,0.995c-0.009,0.184-0.014,0.367-0.014,0.553
				c0,0.185,0.005,0.369,0.014,0.553l3.376,0.995l1.008,3.096l-2.15,2.793c0.203,0.304,0.421,0.602,0.652,0.893l3.318-1.181
				l2.633,1.913l-0.098,3.525c0.342,0.127,0.693,0.24,1.05,0.339L167.806,319.735z M169.432,317.145
				c-4.095,0-7.426-3.332-7.426-7.427c0-4.095,3.332-7.426,7.426-7.426c4.095,0,7.427,3.331,7.427,7.426
				C176.859,313.813,173.527,317.145,169.432,317.145z M169.432,303.792c-3.268,0-5.926,2.658-5.926,5.926s2.659,5.927,5.926,5.927
				c3.268,0,5.927-2.659,5.927-5.927S172.7,303.792,169.432,303.792z"/>
		</g>
		<g>
			<path style="fill:#F7E041;" d="M197.147,329.01c0.037-0.275,0.067-0.553,0.083-0.835c0.016-0.282,0.017-0.561,0.011-0.839
				l-2.563-0.913l-0.471-1.777l1.781-2.065c-0.266-0.493-0.572-0.963-0.91-1.406l-2.613,0.769l-1.424-1.161l0.227-2.718
				c-0.499-0.241-1.021-0.442-1.562-0.603l-1.663,2.16l-1.834-0.102l-1.413-2.331c-0.555,0.1-1.096,0.242-1.619,0.426l-0.076,2.727
				l-1.544,0.996l-2.511-1.054c-0.386,0.403-0.742,0.835-1.061,1.296l1.54,2.25l-0.666,1.714l-2.649,0.622
				c-0.037,0.275-0.067,0.553-0.083,0.835c-0.016,0.282-0.017,0.561-0.011,0.839l2.563,0.913l0.471,1.777l-1.781,2.065
				c0.266,0.493,0.572,0.963,0.91,1.406l2.613-0.769l1.424,1.161l-0.227,2.718c0.499,0.241,1.021,0.442,1.562,0.603l1.663-2.16
				l1.834,0.102l1.413,2.331c0.555-0.1,1.096-0.242,1.619-0.426l0.076-2.727l1.544-0.996l2.511,1.054
				c0.386-0.403,0.742-0.835,1.061-1.296l-1.54-2.25l0.666-1.714L197.147,329.01z M186.4,332.558
				c-2.745-0.153-4.847-2.503-4.693-5.248c0.153-2.745,2.502-4.846,5.248-4.694c2.745,0.153,4.846,2.503,4.693,5.248
				C191.495,330.61,189.145,332.711,186.4,332.558z"/>
		</g>
		<g>
			<path style="fill:#63DCFF;" d="M395.445,183.508c0.015-0.193,0.025-0.387,0.025-0.583c0-0.196-0.01-0.39-0.025-0.583
				l-1.815-0.536l-0.396-1.216l1.158-1.502c-0.204-0.333-0.434-0.647-0.686-0.941l-1.785,0.634l-1.033-0.752l0.053-1.897
				c-0.356-0.148-0.726-0.268-1.108-0.359l-1.073,1.564l-1.278-0.001l-1.071-1.565c-0.382,0.091-0.752,0.21-1.108,0.358l0.051,1.897
				l-1.034,0.751l-1.785-0.636c-0.253,0.295-0.483,0.609-0.687,0.941l1.156,1.503l-0.397,1.216l-1.816,0.534
				c-0.015,0.193-0.025,0.387-0.026,0.583c0,0.196,0.01,0.39,0.025,0.583l1.815,0.536l0.395,1.216l-1.158,1.502
				c0.204,0.333,0.434,0.647,0.686,0.941l1.785-0.634l1.034,0.752l-0.053,1.897c0.356,0.148,0.726,0.268,1.108,0.359l1.073-1.564
				l1.278,0.001l1.071,1.565c0.382-0.091,0.752-0.21,1.108-0.358l-0.052-1.897l1.034-0.751l1.784,0.636
				c0.253-0.295,0.483-0.609,0.687-0.941l-1.156-1.504l0.397-1.216L395.445,183.508z M388.117,186.385
				c-1.913-0.001-3.462-1.552-3.461-3.465c0.001-1.912,1.552-3.462,3.465-3.461c1.913,0.001,3.462,1.552,3.461,3.465
				C391.581,184.836,390.029,186.385,388.117,186.385z"/>
		</g>
		<g>
			<path style="fill:#053F64;" d="M291.146,292.936h-1.5v-3h1.5V292.936z M291.146,286.936h-1.5v-3h1.5V286.936z M291.146,280.936
				h-1.5v-3h1.5V280.936z M291.146,274.936h-1.5v-3h1.5V274.936z M291.146,268.936h-1.5v-3h1.5V268.936z"/>
		</g>
		<g>
			<path style="fill:#053F64;" d="M301.706,294.057c-1.109-0.153-2.15-0.537-3.094-1.14l0.807-1.264
				c0.761,0.485,1.599,0.794,2.492,0.917L301.706,294.057z M304.99,293.809l-0.426-1.438c0.861-0.255,1.645-0.686,2.328-1.28
				l0.984,1.131C307.03,292.959,306.06,293.493,304.99,293.809z M296.27,290.602c-0.612-0.939-1.007-1.976-1.172-3.081l1.484-0.221
				c0.133,0.891,0.45,1.726,0.943,2.482L296.27,290.602z M309.849,289.584l-1.365-0.623c0.373-0.817,0.563-1.691,0.563-2.598
				c0-0.631-0.093-1.253-0.277-1.848l1.434-0.443c0.228,0.739,0.344,1.51,0.344,2.291
				C310.546,287.486,310.311,288.569,309.849,289.584z M296.752,284.646l-1.443-0.41c0.306-1.074,0.829-2.052,1.556-2.904
				l1.143,0.973C297.42,282.992,296.998,283.779,296.752,284.646z M307.463,282.199c-0.594-0.666-1.337-1.209-2.147-1.568
				l0.607-1.371c1.006,0.445,1.925,1.117,2.659,1.941L307.463,282.199z M300.12,280.689l-0.637-1.357
				c1.008-0.474,2.089-0.72,3.211-0.731l0.016,1.5C301.805,280.109,300.933,280.308,300.12,280.689z"/>
		</g>
		<g>
			<path style="fill:#053F64;" d="M302.779,290.647c-2.361,0-4.283-1.922-4.283-4.283s1.922-4.283,4.283-4.283
				s4.283,1.922,4.283,4.283S305.141,290.647,302.779,290.647z M302.779,283.58c-1.534,0-2.783,1.249-2.783,2.783
				c0,1.534,1.249,2.783,2.783,2.783s2.783-1.249,2.783-2.783C305.563,284.829,304.314,283.58,302.779,283.58z"/>
		</g>
		<g>
			<rect x="197.364" y="200.694" style="fill:#053F64;" width="17.169" height="1.5"/>
		</g>
		<g>
			<rect x="214.534" y="205.442" style="fill:#053F64;" width="10.883" height="1.5"/>
		</g>
		<g>
			<rect x="219.204" y="200.616" style="fill:#053F64;" width="6.213" height="1.5"/>
		</g>
		<g>
			<rect x="230.137" y="200.616" style="fill:#053F64;" width="3.926" height="1.5"/>
		</g>
		<g>
			<rect x="295.764" y="305.196" style="fill:#053F64;" width="8.073" height="1.5"/>
		</g>
		<g>
			<rect x="308.494" y="305.196" style="fill:#053F64;" width="4.889" height="1.5"/>
		</g>
		<g>
			<path style="fill:#053F64;" d="M383.971,294.13c-1.648,0-2.987-1.341-2.987-2.988s1.34-2.987,2.987-2.987
				c1.647,0,2.988,1.34,2.988,2.987S385.618,294.13,383.971,294.13z M383.971,289.654c-0.82,0-1.487,0.667-1.487,1.487
				s0.667,1.488,1.487,1.488c0.82,0,1.488-0.668,1.488-1.488S384.791,289.654,383.971,289.654z"/>
		</g>
		<g>
			<path style="fill:#053F64;" d="M303.204,126.353c-1.648,0-2.988-1.34-2.988-2.988c0-1.647,1.341-2.988,2.988-2.988
				c1.647,0,2.987,1.34,2.987,2.988C306.191,125.012,304.852,126.353,303.204,126.353z M303.204,121.877
				c-0.82,0-1.488,0.667-1.488,1.488c0,0.82,0.668,1.488,1.488,1.488c0.82,0,1.487-0.667,1.487-1.488
				C304.691,122.544,304.024,121.877,303.204,121.877z"/>
		</g>
		<g>
			<path style="fill:#053F64;" d="M271.095,325.597c-1.647,0-2.987-1.341-2.987-2.988s1.34-2.987,2.987-2.987
				c1.647,0,2.988,1.34,2.988,2.987S272.742,325.597,271.095,325.597z M271.095,321.121c-0.82,0-1.487,0.667-1.487,1.487
				s0.667,1.488,1.487,1.488s1.488-0.668,1.488-1.488S271.915,321.121,271.095,321.121z"/>
		</g>
		<g>
			<path style="fill:#053F64;" d="M45.047,314.369c-1.648,0-2.988-1.341-2.988-2.988c0-1.647,1.34-2.988,2.988-2.988
				c1.648,0,2.988,1.341,2.988,2.988C48.035,313.028,46.695,314.369,45.047,314.369z M45.047,309.893
				c-0.82,0-1.488,0.668-1.488,1.488c0,0.82,0.667,1.488,1.488,1.488c0.821,0,1.488-0.668,1.488-1.488
				C46.535,310.56,45.868,309.893,45.047,309.893z"/>
		</g>
		<g>
			<path style="fill:#053F64;" d="M61.47,277.456c-2.539,0-4.604-2.065-4.604-4.604c0-2.538,2.065-4.604,4.604-4.604
				c2.539,0,4.603,2.066,4.603,4.604C66.073,275.391,64.008,277.456,61.47,277.456z M61.47,269.749
				c-1.711,0-3.104,1.393-3.104,3.104c0,1.711,1.392,3.104,3.104,3.104c1.711,0,3.103-1.393,3.103-3.104
				C64.573,271.142,63.181,269.749,61.47,269.749z"/>
		</g>
		<g>
			<path style="fill:#053F64;" d="M303.954,144.663h-1.5v-1.71h1.5V144.663z M303.954,139.953h-1.5v-3h1.5V139.953z
				 M303.954,133.953h-1.5v-3h1.5V133.953z"/>
		</g>
	</g>
</g>
</svg>
